<svg width="512" height="512" xmlns="http://www.w3.org/2000/svg">

 <g class="currentLayer">
  <title>Layer 1</title>
  <path stroke="null" fill="#384148" id="svg_1" d="m488.549996,-7l-468.099991,0c-21.788688,0 -39.450004,17.20929 -39.450004,38.440315l0,456.11937c0,21.231025 17.661316,38.440315 39.450004,38.440315l252.746285,0l0,-206.121094l-71.045898,0l0,-80.678711l71.045898,0l0,-59.374489c0,-68.853424 43.139183,-106.329987 106.172386,-106.329987c30.189499,0 56.134774,2.191826 63.696755,3.171844l0,71.964271l-43.464699,0c-34.296005,0 -40.935692,15.879554 -40.935692,39.184479l0,51.383881l81.996582,0l-10.683594,80.678711l-71.312988,0l0,206.121094l129.884957,0c21.788688,0 39.450004,-17.20929 39.450004,-38.440315l0,-456.11937c0,-21.231025 -17.661316,-38.440315 -39.450004,-38.440315zm0,0"/>
 </g>
 <g>
  <title>Layer 2</title>
  <rect fill="none" y="0" x="0" height="100%" width="100%" id="backgroundrect"/>
 </g>
 <g>
  <title>background</title>
  <rect fill="none" id="canvas_background" height="482" width="642" y="-1" x="-1"/>
 </g>
</svg>