<svg xmlns="http://www.w3.org/2000/svg" height="512" width="512"><rect id="backgroundrect" width="100%" height="100%" x="0" y="0" fill="none" stroke="none"/><g class="currentLayer" style=""><title>Layer 1</title><path d="m259.94007972860544,112.9302833536804 c-72.79190383357448,0 -131.9912375881396,62.27924784433399 -132.02362012925542,138.8342838174796 c-0.008095117158300672,26.234052569818253 6.970342493303937,51.782218908248815 20.178371709985083,73.88817770595014 l3.137057893415437,5.252775443840328 l-13.333510786324013,51.23691761317645 l49.94602211259487,-13.785870794306659 l4.820951067680124,3.0076719855908416 c20.25932702653335,12.652668261588168 43.48570412374467,19.345376512562055 67.16543783281898,19.353897373557132 h0.05262137025290143 c72.73523490474243,0 131.93456865930753,-62.28350882013173 131.96695120042338,-138.84280467847466 c0.012142675737451002,-37.10171551128055 -13.70186348681827,-71.98388687549564 -38.61618131687342,-98.22645921570856 c-24.914316793813835,-26.242572340212924 -58.04975250871169,-40.70580850491219 -93.2941009547179,-40.7185892511046 zm77.62095105465423,198.52761557576912 c-3.3070667523942237,9.747241154936228 -19.154272033774525,18.646710625582365 -26.776312907974297,19.84807568385984 c-6.836764770261451,1.073559777554165 -15.482903248189144,1.5208760788849647 -24.987178029445122,-1.652941244805619 c-5.764092318618461,-1.925591347041598 -13.151360287849093,-4.4944668016963085 -22.619206005651403,-8.792965797110304 c-39.79409443653959,-18.08010990452332 -65.78513124057555,-60.23863196276148 -67.76856240204106,-63.024774649685185 c-1.9834311614654936,-2.786143777524109 -16.199366711316642,-22.634219461383953 -16.199366711316642,-43.18095994162308 c0,-20.5424816856422 10.249075299402794,-30.643316214565818 13.884015021534507,-34.81827090505424 c3.638988316952181,-4.179214575685754 7.937770131958493,-5.222952975657757 10.580995827719434,-5.222952975657757 c2.6432246595196256,0 5.290496877618401,0.025560401784418527 7.601801008821386,0.14484482151265915 c2.43678673708717,0.1278052807233194 5.707423389786409,-0.9755758744130083 8.92543763599143,7.165586044689512 c3.3070667523942237,8.358429151371508 11.240789325773566,28.90091083701371 12.232505424626972,30.988387636957718 c0.9917150626120892,2.0917377757417492 1.6515095969075366,4.528548064475806 0.3319205283166416,7.314690751399506 c-1.3236366271700457,2.786143777524109 -7.565370909126401,11.178654191675115 -9.91715269860352,14.275789219412035 c-1.7527047788341896,2.3004852376160683 -4.055913792878873,4.341101119188571 -1.7405621030967386,8.520315694874325 c2.3113041312029847,4.17495469048842 10.277409245698161,17.845802040864584 22.068701770440907,28.913691583206123 c15.155029242210336,14.220407440045452 27.938037865806486,18.625410108995275 31.904899152496156,20.717147884737024 c3.9628126918692055,2.087476799944005 6.278165417892656,1.7381444017543624 8.593516071433474,-1.0437383999720027 c2.3113041312029847,-2.786143777524109 9.917153734844836,-12.188312419468028 12.560378394364461,-16.36752699515378 c2.6432256957609406,-4.179214575685754 5.290497913859717,-3.48054868870606 8.925438672232747,-2.0874778905444145 c3.638987280710865,1.3888120035647198 23.14137318584258,11.489646532488333 27.108234472532253,13.57712333243234 c3.9668612866896713,2.0917377757417492 6.6100859462092965,3.1354761757137517 7.601801008821386,4.877881553265858 c0.9957636574325551,1.7424042869516976 0.9957636574325551,10.096573553125872 -2.3113041312029847,19.848074593259433 zm0,0 " id="svg_1" class="" fill-opacity="1" fill="#384148"/><path d="m478.74646247085565,-23.076904296875 h-449.3390876064588 c-20.9154230779242,0 -37.868893974456924,17.99660889936492 -37.868893974456924,40.198946780225334 v476.98668150040913 c0,22.202337880860412 16.953470896532725,40.198946780225334 37.868893974456924,40.198946780225334 h449.3390876064588 c20.9154230779242,0 37.868893974456924,-17.99660889936492 37.868893974456924,-40.198946780225334 v-476.98668150040913 c0,-22.202337880860412 -16.953470896532725,-40.198946780225334 -37.868893974456924,-40.198946780225334 zm-219.10518416469873,440.955190323739 c-0.00400576225765486,0 0.004006787798427426,0 0,0 h-0.064096298285568 c-26.299512133911907,-0.012757792646754338 -52.14233865530953,-7.012383488485298 -75.09281920380052,-20.297214821570364 l-83.29714538435321,23.188919465135616 l22.29349349106391,-86.41093876065575 c-13.75266174451198,-25.285405059559988 -20.98753192626585,-53.972816670779665 -20.975513613952113,-83.36189163658635 c0.03605391140043886,-91.93919654941816 70.52595795095381,-166.73653997717773 157.1360810093275,-166.73653997717773 c42.03114760076119,0.017010027315089736 81.48642495778593,17.38424791602169 111.15099377723091,48.8995762962146 c29.66857355616188,31.51958061486124 45.99710554441032,73.41527789192722 45.98108146983893,117.96879166481551 c-0.03605391140043886,91.94345096136999 -70.5339694754691,166.74929776982447 -157.13207524706985,166.74929776982447 zm0,0 " id="svg_2" class="" fill-opacity="1" fill="#384148"/></g></svg>