<svg width="568.0339965820312" height="568.0339965820312" xmlns="http://www.w3.org/2000/svg">

 <g class="currentLayer">
  <title>Layer 1</title>
  <g stroke="#211313" fill="#384148" class="selected" id="svg_1">
   <g stroke="#211313" fill="#384148" id="svg_2">
    <path stroke="#211313" fill="#384148" id="svg_3" d="m559.469318,-2.00001l-552.897394,0c-8.390711,0 -15.190883,6.636366 -15.190883,14.824956l0,544.384113c0,8.189601 6.800172,14.824956 15.190883,14.824956l183.800362,0l0,-0.130363c8.295444,-0.092972 14.651384,-4.625346 14.943397,-12.294507c0.753849,-19.933351 0.221598,-39.909146 0.221598,-59.180578c-14.803603,0.674045 -28.936198,2.499122 -42.909325,1.712904c-30.818749,-1.732105 -54.500787,-14.565242 -66.782931,-44.016073c-7.27547,-17.447367 -18.238379,-32.370347 -35.311813,-42.328433c-3.188325,-1.861457 -5.975909,-4.602103 -8.415563,-7.385193c-3.188325,-3.629942 -2.591873,-7.358918 2.445867,-8.355333c5.082267,-1.008542 10.634653,-1.712904 15.646506,-0.798345c19.683946,3.605688 33.295681,15.653618 43.714949,31.678112c20.602441,31.702365 52.314832,41.4068 87.993215,26.766777c1.989208,-0.816535 4.517916,-2.795217 4.892769,-4.601092c2.876638,-14.033686 8.250917,-26.829432 19.081281,-38.047689c-12.040872,-2.176752 -23.194314,-3.778494 -34.132371,-6.253363c-31.497006,-7.112341 -59.792226,-19.908087 -80.48372,-45.32172c-16.881865,-20.730685 -24.601567,-44.99834 -28.150249,-70.826304c-5.557564,-40.453839 -0.58299,-78.321648 27.884124,-110.649552c1.438319,-1.633069 2.218055,-4.979043 1.578112,-7.013306c-7.129463,-22.734631 -6.04011,-45.278266 1.026187,-67.759246c3.708149,-11.806405 4.74055,-12.394553 17.08586,-10.749356c0.754884,0.099035 1.489059,0.283968 2.23773,0.408267c24.746538,3.995765 46.04691,15.689998 67.029382,28.24523c2.82072,1.68865 7.117037,2.739636 10.216309,2.003946c50.115416,-11.868049 100.135566,-11.818532 150.244769,0.043454c2.908738,0.686172 6.793959,-0.291042 9.57533,-1.712904c11.407141,-5.819831 22.326559,-12.585549 33.879707,-18.103222c13.440877,-6.413031 27.598324,-11.237458 42.839946,-10.97168c2.667465,0.049518 6.793959,2.535502 7.686566,4.836554c9.170447,23.711845 11.103738,47.875412 3.796167,72.552345c-0.779737,2.634537 0.380031,6.388778 1.831811,8.985924c7.212304,12.913982 17.281571,24.831549 21.845049,38.529728c13.910997,41.752412 8.841156,83.097568 -10.095154,122.338732c-17.351985,35.969972 -49.532426,54.196483 -87.62561,63.597748c-12.865135,3.173167 -26.046099,5.102332 -39.924995,7.762133c18.187639,18.541806 21.039424,41.170328 20.716346,64.870047c-0.335504,24.447535 -0.246451,48.902144 -0.259912,73.355743c-0.006213,11.843796 5.291439,18.38719 14.537478,18.770193c-0.006213,0.037391 195.423925,0.037391 195.423925,0.037391l0,-559.206038c-0.002071,-8.18859 -6.801208,-14.824956 -15.185705,-14.824956z"/>
   </g>
  </g>
  <g id="svg_4"/>
  <g id="svg_5"/>
  <g id="svg_6"/>
  <g id="svg_7"/>
  <g id="svg_8"/>
  <g id="svg_9"/>
  <g id="svg_10"/>
  <g id="svg_11"/>
  <g id="svg_12"/>
  <g id="svg_13"/>
  <g id="svg_14"/>
  <g id="svg_15"/>
  <g id="svg_16"/>
  <g id="svg_17"/>
  <g id="svg_18"/>
 </g>
 <g>
  <title>Layer 2</title>
  <rect fill="none" y="0" x="0" height="100%" width="100%" id="backgroundrect"/>
 </g>
 <g>
  <title>background</title>
  <rect fill="none" id="canvas_background" height="482" width="642" y="-1" x="-1"/>
 </g>
</svg>