<svg width="640" height="480" xmlns="http://www.w3.org/2000/svg">

 <g class="currentLayer">
  <title>Layer 1</title>
  <g stroke="null" fill="#999999" id="svg_1">
   <g stroke="null" fill="#999999" id="svg_2">
    <g stroke="null" fill="#999999" id="svg_3">
     <path stroke="null" fill="#999999" id="svg_4" d="m14.2765,38.945012c87.288516,74.388751 240.452719,205.261252 285.469594,246.067502c6.043242,5.5075 12.524977,8.3075 19.253906,8.3075c6.715266,0 13.18582,-2.77375 19.215398,-8.255c45.055383,-40.84625 198.219586,-171.731252 285.509344,-246.120002c5.43457,-4.6225 6.263109,-12.7475 1.863281,-18.39875c-10.171031,-13.05875 -25.335656,-20.54625 -41.588437,-20.54625l-529.999172,0c-16.251539,0 -31.417406,7.4875 -41.587195,20.5475c-4.399828,5.65 -3.571289,13.775 1.863281,18.3975z"/>
     <path stroke="null" fill="#999999" id="svg_5" d="m629.314586,79.257512c-4.696711,-2.2 -10.221961,-1.4325 -14.129883,1.9275c-96.801187,82.577501 -220.346672,188.425002 -259.217203,223.671252c-21.816539,19.8175 -52.094859,19.8175 -73.962328,-0.02625c-41.431922,-37.565 -180.169359,-156.250001 -259.189875,-223.646252c-3.934008,-3.36 -9.47168,-4.10125 -14.129883,-1.9275c-4.683047,2.18875 -7.685414,6.9025 -7.685414,12.0975l0,335.312503c0,29.415 23.769258,53.33375 53.000414,53.33375l530.000414,0c29.229914,0 52.999172,-23.91875 52.999172,-53.33375l0,-335.312503c0,-5.195 -3.002367,-9.92125 -7.685414,-12.09625z"/>
    </g>
   </g>
  </g>
  <g id="svg_6"/>
  <g id="svg_7"/>
  <g id="svg_8"/>
  <g id="svg_9"/>
  <g id="svg_10"/>
  <g id="svg_11"/>
  <g id="svg_12"/>
  <g id="svg_13"/>
  <g id="svg_14"/>
  <g id="svg_15"/>
  <g id="svg_16"/>
  <g id="svg_17"/>
  <g id="svg_18"/>
  <g id="svg_19"/>
  <g id="svg_20"/>
 </g>
 <g>
  <title>Layer 2</title>
  <rect fill="none" y="0" x="0" height="100%" width="100%" id="backgroundrect"/>
 </g>
 <g>
  <title>background</title>
  <rect fill="none" id="canvas_background" height="482" width="642" y="-1" x="-1"/>
 </g>
</svg>