<svg xmlns="http://www.w3.org/2000/svg" height="512" width="512"><rect id="backgroundrect" width="100%" height="100%" x="0" y="0" fill="none" stroke="none"/><g class="currentLayer" style=""><title>Layer 1</title><path d="m370.59375,175.1870408289795 c-2.3554690000000003,-6.3828130000000005 -6.113281,-12.160157 -10.996094,-16.902344 c-4.742187,-4.8828130000000005 -10.515625,-8.640625 -16.902344,-10.996094 c-5.179687,-2.011719 -12.960937,-4.40625 -27.292968,-5.058594 c-15.503906,-0.7070310000000001 -20.152344,-0.8593750000000001 -59.402344,-0.8593750000000001 c-39.253906,0 -43.902344,0.14843800000000004 -59.402344,0.855469 c-14.332031,0.6562500000000001 -22.117187,3.050781 -27.292968,5.0625 c-6.386719,2.3554690000000003 -12.164063,6.113281 -16.902344,10.996094 c-4.8828130000000005,4.742187 -8.640625,10.515625 -11,16.902344 c-2.011719,5.179687 -4.40625,12.964843 -5.058594,27.296874 c-0.7070310000000001,15.5 -0.8593750000000001,20.148438 -0.8593750000000001,59.402344 c0,39.25 0.15234400000000003,43.898438 0.8593750000000001,59.402344 c0.6523440000000001,14.332031 3.046875,22.113281 5.058594,27.292969 c2.359375,6.386719 6.113281,12.160156 10.996094,16.902343 c4.742187,4.8828130000000005 10.515624,8.640626000000001 16.902343,10.996094 c5.179688,2.015625 12.964844,4.410156 27.296875,5.0625 c15.5,0.707032 20.144532,0.855469 59.398438,0.855469 c39.257812,0 43.90625,-0.14843700000000004 59.402344,-0.855469 c14.332031,-0.6523440000000001 22.117187,-3.046875 27.296874,-5.0625 c12.820313,-4.9453119999999995 22.953126,-15.078125 27.898438,-27.898437 c2.011719,-5.179688 4.40625,-12.960938 5.0625,-27.292969 c0.7070310000000001,-15.503906 0.855469,-20.152344 0.855469,-59.402344 c0,-39.253906 -0.14843800000000004,-43.902344 -0.855469,-59.402344 c-0.6523440000000001,-14.332031 -3.046875,-22.117187 -5.0625,-27.296874 zm-114.59375,162.179687 c-41.691406,0 -75.488281,-33.792969 -75.488281,-75.484375 s33.796875,-75.484375 75.488281,-75.484375 c41.6875,0 75.484375,33.792969 75.484375,75.484375 s-33.796875,75.484375 -75.484375,75.484375 zm78.46875,-136.3125 c-9.742188,0 -17.640625,-7.898437 -17.640625,-17.640625 s7.898437,-17.640625 17.640625,-17.640625 s17.640625,7.898437 17.640625,17.640625 c-0.003906000000000001,9.742188 -7.898437,17.640625 -17.640625,17.640625 zm0,0 " id="svg_1" class="" fill-opacity="1" fill="#384148"/><path d="m305.6535947918892,261.8823528289795 c0,27.0625 -21.9375,49 -49,49 s-49,-21.9375 -49,-49 s21.9375,-49 49,-49 s49,21.9375 49,49 zm0,0 " id="svg_2" class="" fill-opacity="1" fill="#384148"/><path d="m481.9905346711978,-15.051340133068148 h-452.69073407300823 c-21.071432438758855,0 -38.15136026368566,17.665986506270954 -38.15136026368566,39.46043698325998 v468.2237818345072 c0,21.794450476989017 17.079927824926802,39.46043698325998 38.15136026368566,39.46043698325998 h452.69073407300823 c21.071432438758855,0 38.15136026368566,-17.665986506270954 38.15136026368566,-39.46043698325998 v-468.2237818345072 c0,-21.794450476989017 -17.079927824926802,-39.46043698325998 -38.15136026368566,-39.46043698325998 zm-75.38253641309397,338.3378717982965 c-0.7345332414711525,16.72257553943175 -3.3054021695960385,28.139511793040967 -7.0587884387243855,38.13298283150184 c-7.890184307856164,21.10150352547798 -24.017639787158505,37.782335774782986 -44.419113380759725,45.94325372147079 c-9.657907890343681,3.8821751393160957 -20.7001296599561,6.537083442832369 -36.86390797888721,7.3009946287440375 c-16.196065517087874,0.7639122545535751 -21.370089538304065,0.9475850821234989 -62.616985183566825,0.9475850821234989 c-41.250931286734755,0 -46.4209186332886,-0.18367282756992506 -62.621020825038826,-0.9475850821234989 c-16.16377831893111,-0.7639111859116683 -27.20600008854353,-3.4188194894279422 -36.86390797888721,-7.3009946287440375 c-10.138180221223093,-3.9447911431481377 -19.315816813877706,-10.12705127669354 -26.903308380716645,-18.120993925590525 c-7.724711642410008,-7.843664880885223 -13.701879976073224,-17.340385209899775 -17.515805000043084,-27.82225979588028 c-3.7533862691283475,-9.989296923176571 -6.324255197253234,-21.41040729207009 -7.0587884387243855,-38.12880871621755 c-0.7466411990775242,-16.75597059898992 -0.9201851474677021,-22.107529427507323 -0.9201851474677021,-64.76971801306715 s0.17354394839017837,-48.013747414077216 0.9161495059956921,-64.76554389778286 c0.7345332414711525,-16.72257553943175 3.301365494933687,-28.139511793040967 7.054752797252376,-38.13298283150184 c3.813925023969861,-10.481874585980508 9.795127965914748,-19.978594914995053 17.523876282987104,-27.82225979588028 c7.58345592536693,-7.993942648896979 16.765128159493553,-14.176202782442381 26.89927273924464,-18.120993925590525 c9.661943531815693,-3.8821751393160957 20.7001296599561,-6.537083442832369 36.86794362035922,-7.3009946287440375 c16.196065517087874,-0.7639122545535751 21.370089538304065,-0.9475850821234989 62.616985183566825,-0.9475850821234989 s46.42091966647894,0.18367282756992506 62.616985183566825,0.9517591974077937 c16.167813960403123,0.7597370706273733 27.20600008854353,3.4146453741436478 36.86794362035922,7.292646398175448 c10.134144579751085,3.9447911431481377 19.315816813877706,10.131225391977834 26.903308380716645,18.125168040874815 c7.724712675600346,7.847838996169518 13.705915617545232,17.340385209899775 17.515805000043084,27.82225979588028 c3.7574229437906985,9.993471038460868 6.324255197253234,21.41040729207009 7.062825113386737,38.13298283150184 c0.738568882943163,16.751796483705622 0.9121128313333405,22.103355312223027 0.9121128313333405,64.76554389778286 s-0.17354394839017837,48.013747414077216 -0.9161495059956921,64.76554389778286 zm0,0 " id="svg_3" class="" fill-opacity="1" fill="#384148"/></g></svg>