<svg xmlns="http://www.w3.org/2000/svg" xmlns:xlink="http://www.w3.org/1999/xlink" version="1.1" width="510" height="510" style="" xml:space="preserve"><rect id="backgroundrect" width="100%" height="100%" x="0" y="0" fill="none" stroke="none"/>
















<g class="currentLayer" style=""><title>Layer 1</title><g id="svg_1" class="selected" fill-opacity="1" fill="#384148">
	<g id="post-linkedin" fill="#384148">
		<path d="M467.2353211626579,-18.30063157061049 H41.457533983117706 C12.185311114524316,-18.30063157061049 -11.764689414324819,6.414073955249351 -11.764689414324819,36.6209362646336 v439.3725426819527 c0,30.206862309384253 23.950000528849134,54.92156783524409 53.22222339744252,54.92156783524409 h425.77778717954016 c29.27222286859339,0 53.22222339744252,-24.71470552585984 53.22222339744252,-54.92156783524409 V36.6209362646336 C520.4575445601004,6.414073955249351 496.5075440312513,-18.30063157061049 467.2353211626579,-18.30063157061049 zM147.90198077800278,448.53269502896427 H68.06864568183896 V201.38563977036588 H147.90198077800278 V448.53269502896427 zM107.98531322992086,154.70230711040844 c-26.61111169872126,0 -47.90000105769827,-21.968627134097638 -47.90000105769827,-49.42941105171968 s21.28888935897701,-49.42941105171968 47.90000105769827,-49.42941105171968 s47.90000105769827,21.968627134097638 47.90000105769827,49.42941105171968 S134.5964249286421,154.70230711040844 107.98531322992086,154.70230711040844 zM440.6242094639366,448.53269502896427 H360.7908743677728 V302.9905402655675 c0,-21.967550240610674 -18.627778189104884,-41.191175876433064 -39.91666754808189,-41.191175876433064 s-39.91666754808189,19.223625635822398 -39.91666754808189,41.191175876433064 V448.53269502896427 H201.1242041754453 V201.38563977036588 h79.83333509616378 v32.95294070114645 c13.30555584936063,-21.968627134097638 42.57777871795402,-38.44509748467087 66.52777924680315,-38.44509748467087 c50.5611122275704,0 93.13889094552442,43.937254268195275 93.13889094552442,96.11274371167717 V448.53269502896427 z" id="svg_2" fill="#384148"/>
	</g>
</g><g id="svg_3">
</g><g id="svg_4">
</g><g id="svg_5">
</g><g id="svg_6">
</g><g id="svg_7">
</g><g id="svg_8">
</g><g id="svg_9">
</g><g id="svg_10">
</g><g id="svg_11">
</g><g id="svg_12">
</g><g id="svg_13">
</g><g id="svg_14">
</g><g id="svg_15">
</g><g id="svg_16">
</g><g id="svg_17">
</g></g></svg>